@startuml
state choice1 <<choice>>

[*] --> choice1 :选择任务类型
choice1 --> 未开始 :定时发送

未开始 #FFFFCC --> 队列中 :满足执行时间
未开始 --> 编辑暂停 #CCCCCC:点击编辑
未开始 <-- 编辑暂停  :点击保存

choice1 --> 队列中 :立即发送

队列中 #FFFFCC --> 运行中 :有空闲的托管账号
队列中 --> 队列中 :没有空闲的托管账号，还在队列中
'队列中 <-- 手动暂停 :点击启动

'运行中 #FFFFCC --> 手动暂停 #CCCCCC :点击暂停
'运行中 <-- 手动暂停 :点击启动

state 运行中 #FFFFCC  {
  [*] --> 待修改
  待修改 --> 已修改
  待修改 --> 修改失败
  修改失败 --> 待修改 :重试操作
  已修改 --> [*]
  修改失败 --> [*]
}

note left of 运行中 : 执行子任务
note right of 运行中 :失败的情况:无效的托管账号；群主/管理不在线；接口超时；群不存在

运行中 --> 已完成

已完成 #FFFFCC --> [*]

@enduml
